<svg xmlns="http://www.w3.org/2000/svg" viewBox="0 0 800 450" width="800" height="450">
    <defs>
      <linearGradient id="sky1" x1="0" y1="0" x2="0" y2="1">
        <stop offset="0%" stop-color="#334155"/>
        <stop offset="50%" stop-color="#475569"/>
        <stop offset="100%" stop-color="#64748b"/>
      </linearGradient>
      <linearGradient id="water1" x1="0" y1="0" x2="0" y2="1">
        <stop offset="0%" stop-color="#0284c7" stop-opacity="0.85"/>
        <stop offset="50%" stop-color="#0369a1" stop-opacity="0.95"/>
        <stop offset="100%" stop-color="#0c4a6e"/>
      </linearGradient>
    </defs>
    <rect width="800" height="450" fill="url(#sky1)"/>
    <path d="M0 240 Q 200 180, 450 230 T 800 210 L 800 450 L 0 450 Z" fill="#334155" opacity="0.7"/>
    <path d="M0 260 Q 300 220, 600 270 T 800 250 L 800 450 L 0 450 Z" fill="#1e293b"/>
    <polygon points="340,260 460,260 580,450 220,450" fill="#475569" opacity="0.5"/>
    <path d="M0 280 Q 200 275, 400 285 T 800 280 L 800 450 L 0 450 Z" fill="url(#water1)"/>
    <path d="M50 310 Q 250 300, 450 315 T 750 310" stroke="#7dd3fc" stroke-width="2" fill="none" opacity="0.6"/>
    <path d="M100 350 Q 300 340, 500 355 T 700 350" stroke="#38bdf8" stroke-width="2" fill="none" opacity="0.5"/>
    <path d="M20 390 Q 220 380, 420 395 T 780 390" stroke="#0284c7" stroke-width="2.5" fill="none" opacity="0.7"/>

    <rect x="160" y="180" width="14" height="170" fill="#f8fafc" stroke="#0f172a" stroke-width="1.5"/>
    <rect x="160" y="190" width="14" height="10" fill="#ef4444"/>
    <rect x="160" y="210" width="14" height="10" fill="#ef4444"/>
    <rect x="160" y="230" width="14" height="10" fill="#f59e0b"/>
    <rect x="160" y="250" width="14" height="10" fill="#f59e0b"/>
    <rect x="160" y="270" width="14" height="10" fill="#10b981"/>
    <text x="185" y="200" fill="#ffffff" font-family="monospace" font-size="11" font-weight="bold">CRITICAL DANGER +2.4m</text>
    <text x="185" y="240" fill="#fbbf24" font-family="monospace" font-size="10">WARNING LEVEL +1.6m</text>

    <rect x="20" y="20" width="280" height="75" rx="10" fill="#0f172a" fill-opacity="0.85" stroke="#38bdf8" stroke-width="1"/>
    <circle cx="36" cy="36" r="5" fill="#ef4444"/>
    <text x="48" y="40" fill="#f8fafc" font-family="sans-serif" font-size="12" font-weight="bold">JANSAHAYA UAV TELEMETRY</text>
    <text x="36" y="60" fill="#94a3b8" font-family="monospace" font-size="10">LOC: 23.3441°N, 85.3096°E (Ranchi)</text>
    <text x="36" y="76" fill="#38bdf8" font-family="monospace" font-size="10">SECTOR: Subarnarekha River Basin</text>
    <rect x="640" y="20" width="140" height="30" rx="6" fill="#ef4444" fill-opacity="0.9"/>
    <text x="652" y="40" fill="#ffffff" font-family="sans-serif" font-size="11" font-weight="bold">URGENCY: 94/100</text>
  </svg>